<?xml version="1.0" encoding="UTF-8" standalone="no"?>
<svg
   xmlns:dc="http://purl.org/dc/elements/1.1/"
   xmlns:cc="http://creativecommons.org/ns#"
   xmlns:rdf="http://www.w3.org/1999/02/22-rdf-syntax-ns#"
   xmlns:svg="http://www.w3.org/2000/svg"
   xmlns="http://www.w3.org/2000/svg"
   viewBox="0 0 853.33331 853.33331"
   height="853.33331"
   width="853.33331"
   xml:space="preserve"
   id="svg2"
   version="1.1"><metadata
     id="metadata8"><rdf:RDF><cc:Work
         rdf:about=""><dc:format>image/svg+xml</dc:format><dc:type
           rdf:resource="http://purl.org/dc/dcmitype/StillImage" /></cc:Work></rdf:RDF></metadata><defs
     id="defs6" /><g
     transform="matrix(1.3333333,0,0,-1.3333333,0,853.33333)"
     id="g10"><g
       transform="scale(0.1)"
       id="g12"><path
         id="path14"
         style="fill:#1b5065;fill-opacity:1;fill-rule:nonzero;stroke:none"
         d="m 835.344,4197.96 c -5.403,0 -10.891,1.1 -16.145,3.41 -20.281,8.93 -29.511,32.66 -20.578,52.95 10.82,24.52 22.016,48.87 33.567,73.02 9.589,20.02 33.582,28.43 53.554,18.82 19.988,-9.57 28.43,-33.56 18.836,-53.53 -11.18,-23.36 -22,-46.94 -32.461,-70.67 -6.629,-15.06 -21.347,-24 -36.773,-24 z M 757.336,3998.6 c -4.34,0 -8.731,0.73 -13.078,2.19 -20.957,7.23 -32.09,30.06 -24.903,51.03 11.79,34.22 24.415,68.58 37.532,102.09 8.074,20.64 31.383,30.78 52.008,22.73 20.656,-8.1 30.839,-31.37 22.746,-52.01 -12.703,-32.46 -24.942,-65.71 -36.336,-98.95 -5.715,-16.63 -21.301,-27.08 -37.969,-27.08 z m -85.207,-309.45 c -2.742,0 -5.488,0.26 -8.262,0.88 -21.719,4.5 -35.625,25.77 -31.074,47.47 14.734,70.62 32.695,141.5 53.34,210.76 6.355,21.28 28.703,33.4 49.953,27.02 21.25,-6.32 33.316,-28.69 26.988,-49.97 -20.015,-67.12 -37.39,-135.8 -51.719,-204.23 -3.945,-18.91 -20.64,-31.93 -39.226,-31.93 z m -54.816,-531.51 c -22.157,0 -40.133,17.98 -40.133,40.15 0,145.1 11.961,290.74 35.562,432.86 3.637,21.9 24.278,36.64 46.184,33.04 21.855,-3.66 36.648,-24.31 33.015,-46.21 -22.878,-137.79 -34.48,-278.98 -34.48,-419.69 0,-22.17 -17.981,-40.15 -40.148,-40.15" /><path
         id="path16"
         style="fill:#1b5065;fill-opacity:1;fill-rule:nonzero;stroke:none"
         d="M 3200,578 C 1753.78,578 577.18,1753.9 577.18,3203.9 h 80.281 c 0,-1390 1140.599,-2545.619 2542.539,-2545.619 699.25,0 1351.01,276.5 1835.19,781.319 l 57.96,-54.78 C 4593.66,864.051 3921.34,578 3200,578" /><path
         id="path18"
         style="fill:#1b5065;fill-opacity:1;fill-rule:nonzero;stroke:none"
         d="m 4872.59,1500.18 379.08,128.65 -78.07,-392.63 z" /><path
         id="path20"
         style="fill:#1b5065;fill-opacity:1;fill-rule:nonzero;stroke:none"
         d="m 5747.73,2731.31 c -2.19,0 -4.39,0.2 -6.64,0.57 -21.84,3.61 -36.64,24.3 -33,46.16 22.85,137.68 34.44,278.92 34.44,419.75 0,22.16 17.99,40.14 40.16,40.14 22.15,0 40.13,-17.98 40.13,-40.14 0,-145.22 -11.94,-290.9 -35.54,-432.93 -3.27,-19.6 -20.28,-33.55 -39.55,-33.55 z m -72.28,-312.7 c -3.83,0 -7.67,0.53 -11.5,1.67 -21.25,6.33 -33.33,28.7 -27.01,49.93 20.03,67.11 37.41,135.85 51.73,204.22 4.52,21.75 25.98,35.76 47.48,31.11 21.73,-4.55 35.63,-25.83 31.09,-47.52 -14.75,-70.57 -32.71,-141.51 -53.35,-210.75 -5.21,-17.42 -21.18,-28.66 -38.44,-28.66 z m -69.71,-202.45 c -4.86,0 -9.8,0.89 -14.61,2.72 -20.65,8.1 -30.85,31.36 -22.79,52.01 12.91,32.99 25.15,66.29 36.36,98.95 7.2,20.96 30.1,32 51.04,24.94 20.96,-7.21 32.09,-30.06 24.9,-51.07 -11.6,-33.67 -24.22,-68.01 -37.51,-102.04 -6.19,-15.84 -21.34,-25.51 -37.39,-25.51 z m -68.97,-159.8 c -5.75,0 -11.56,1.21 -17.09,3.83 -20.05,9.45 -28.65,33.39 -19.19,53.41 9.35,19.87 18.5,39.89 27.36,60.01 8.97,20.34 32.73,29.43 52.93,20.6 20.3,-8.95 29.5,-32.68 20.57,-52.96 -9.17,-20.75 -18.58,-41.4 -28.26,-61.88 -6.85,-14.54 -21.27,-23.01 -36.32,-23.01" /><path
         id="path22"
         style="fill:#1b5065;fill-opacity:1;fill-rule:nonzero;stroke:none"
         d="m 5822.82,3203.9 h -80.29 c 0,1420 -1140.58,2539.45 -2542.53,2539.45 -698.33,0 -1349.49,-278.91 -1833.54,-782.58 l -57.89,54.87 c 499.31,519.59 1171.03,808.38 1891.43,808.38 1446.22,0 2622.82,-1180.12 2622.82,-2620.12" /><path
         id="path24"
         style="fill:#1b5065;fill-opacity:1;fill-rule:nonzero;stroke:none"
         d="m 1529,4896.95 -379.18,-128.27 78.46,392.51 z" /><path
         id="path26"
         style="fill:#ffffff;fill-opacity:1;fill-rule:nonzero;stroke:none"
         d="m 3526.37,3879.79 -26.43,-8.36 c 0.68,-2.15 5.46,-16.78 14.8,-38.28 6.63,9.63 12.8,19.29 18.11,29.02 -4.21,10.66 -6.39,17.25 -6.48,17.62" /><path
         id="path28"
         style="fill:#ffffff;fill-opacity:1;fill-rule:nonzero;stroke:none"
         d="m 4070.31,2143.55 26.58,3.03 c 0,0 -1.05,5.96 -3.19,14.85 -8.89,2.04 -17.62,3.97 -26,5.7 2.16,-14.42 2.61,-23.53 2.61,-23.58" /><path
         id="path30"
         style="fill:#ffffff;fill-opacity:1;fill-rule:nonzero;stroke:none"
         d="m 3910.28,2190.65 c -1.1,-7.9 -2.4,-14.21 -3.27,-18.61 -0.97,-4.55 -1.54,-7.16 -1.54,-7.16 l 26.5,-3.86 c 0,0 0.16,2.72 0.42,7.57 0.21,4.65 0.47,11.24 0.42,18.82 -7.66,1.1 -15.19,2.19 -22.48,3.4 -0.03,-0.05 -0.03,-0.11 -0.05,-0.16" /><path
         id="path32"
         style="fill:#ffffff;fill-opacity:1;fill-rule:nonzero;stroke:none"
         d="m 3693.55,2258.71 15.06,-22.11 c 0,0 5.85,4.81 13.65,12.39 -8.16,4.28 -15.63,8.72 -22.8,13.17 -3.65,-2.19 -5.91,-3.45 -5.91,-3.45" /><path
         id="path34"
         style="fill:#231f20;fill-opacity:1;fill-rule:nonzero;stroke:none"
         d="m 2499.44,2069.48 c -1.67,0.06 -3.29,0.11 -4.99,0.16 -6.43,0 -12.72,-0.1 -19.26,-0.05 l 24.25,-0.11" /><path
         id="path36"
         style="fill:#231f20;fill-opacity:1;fill-rule:nonzero;stroke:none"
         d="m 3813.57,2069.54 c -1.77,0.05 -3.5,0.15 -5.28,0.21 -6.94,0 -13.75,-0.16 -20.8,-0.11 l 26.08,-0.1" /><path
         id="path38"
         style="fill:#231f20;fill-opacity:1;fill-rule:nonzero;stroke:none"
         d="m 2509.33,3677.65 c 0,0 15.6,-2.14 39.04,-0.94 -7.89,1.31 -12.65,1.78 -12.65,1.78 l -26.39,-0.84" /><path
         id="path40"
         style="fill:#231f20;fill-opacity:1;fill-rule:nonzero;stroke:none"
         d="m 3823.95,4092.59 c 0,0 16.72,-2.72 41.84,-1.2 -8.51,1.67 -13.63,2.24 -13.63,2.24 l -28.21,-1.04" /><path
         id="path42"
         style="fill:#1b5065;fill-opacity:1;fill-rule:nonzero;stroke:none"
         d="m 2261.29,3364.17 c -9.26,-50.29 8.26,-97.65 53.52,-144.74 l 3.93,-5.23 c 5.54,-9.46 22.05,-29.27 37.28,-29.27 14.23,0 85.03,21.11 148.86,410.65 -0.99,6.59 -1.93,13.49 -2.93,20.28 -78.72,-45.59 -220.35,-141.4 -240.66,-251.69" /><path
         id="path44"
         style="fill:#1b5065;fill-opacity:1;fill-rule:nonzero;stroke:none"
         d="m 3585.51,3857.94 c -8.36,-40.2 13.9,-83.12 66.23,-127.66 l 3.94,-4.18 c 6.62,-8.51 28.73,-30.89 50.58,-30.89 19.13,0 78.88,22.48 115.16,282.95 -2.28,18.56 -4.5,37.95 -6.64,58.34 -86.1,-33.98 -212.86,-99.79 -229.27,-178.56" /><path
         id="path46"
         style="fill:#1b5065;fill-opacity:1;fill-rule:nonzero;stroke:none"
         d="m 3973.45,3650.36 c 8.86,0 22.24,15.63 26.95,24.04 l 3.65,5.02 c 39.63,43.08 55.1,86.88 47.32,133.93 -14.7,88.6 -107.77,167.43 -170.15,211.23 -1.84,-16.04 -3.77,-31.52 -5.81,-46.52 40.44,-323.36 95.48,-327.7 98.04,-327.7" /><path
         id="path48"
         style="fill:#1b5065;fill-opacity:1;fill-rule:nonzero;stroke:none"
         d="m 2666.56,3258.01 c 6.54,0 16.98,11.76 21.64,20.17 l 3.7,5.28 c 33.83,37.37 46.95,76 40.15,118.09 -14.1,87.29 -108.56,167.47 -170.19,211.39 -0.94,-5.97 -1.86,-11.76 -2.8,-17.58 50.32,-333.07 105.04,-337.35 107.5,-337.35" /><path
         id="path50"
         style="fill:#1b5065;fill-opacity:1;fill-rule:nonzero;stroke:none"
         d="m 4590.87,3024.19 c -192.47,860.04 -584.12,1029.92 -703.41,1062.18 l -0.1,-1.2 c 65.89,-42.71 196.58,-141.29 216.8,-262.93 10.4,-62.73 -9.36,-122.28 -58.81,-176.95 -7.11,-11.55 -32.93,-48.46 -71.9,-48.46 -40.9,0 -89.25,31.95 -127.91,226.77 -32.39,-121.01 -78.43,-179.7 -139.25,-179.7 -0.03,0 -0.03,0 -0.03,0 -47.29,0 -82.17,37.35 -91.22,48.44 -66.91,57.66 -94.5,116.91 -81.93,177.06 23.96,114.91 194.11,191.59 275.86,222.37 -81.07,-8.95 -477.82,-94.4 -711.34,-910.84 -188.06,378.55 -436.4,469.97 -526.89,491.3 l -0.05,-0.25 c 64.66,-43.02 195,-143.02 214.21,-261.85 9.31,-57.5 -7.97,-111.44 -51.33,-160.36 -6.73,-11.35 -30.05,-45.3 -67.01,-45.3 -40.72,0 -90.33,32.15 -135.28,241.93 -60.27,-277.52 -126.97,-315 -175.26,-315 -44.97,0 -74.03,40.67 -81.87,53.11 -55.75,59.02 -77.78,122.74 -65.47,189.44 26.32,142.59 205.93,255.5 285.54,299.2 l -0.45,3.45 c -83.99,-8.31 -493.16,-87.7 -702.26,-848.27 0,0 -192.83,-741.12 702.94,-758.69 388.16,0.73 580.07,132.99 671.73,286.97 107.63,-155.66 300.99,-279.02 642.11,-286.86 992.97,2.24 782.58,954.44 782.58,954.44" /><path
         id="path52"
         style="fill:#1b5065;fill-opacity:1;fill-rule:nonzero;stroke:none"
         d="m 2493.27,3680.47 -5.16,40.3 46.51,-26.29 c 0.09,-0.06 0.47,-0.26 0.58,-0.31 l 41.5,19.55 -5.02,-34.92 c 68.14,9.2 170.62,48.88 193.54,201.82 0,0 -153.16,67.64 -255.89,0 -102.78,-67.64 -213.48,0 -213.48,0 0,0 8.78,-168.21 197.42,-200.15" /><path
         id="path54"
         style="fill:#1b5065;fill-opacity:1;fill-rule:nonzero;stroke:none"
         d="m 3808.97,4095.67 -3.39,36.27 44.12,-23.98 c 0.36,-0.22 1.62,-0.89 2.66,-1.47 l 38.03,11.51 -2.25,-24.32 c 72.74,10.82 184.45,59.65 209.22,254.2 0,0 -163.64,85.16 -273.41,0 -109.8,-85.04 -228.09,0 -228.09,0 0,0 9.4,-213.06 213.11,-252.21" /></g></g></svg>